<svg width="66" height="26" viewBox="0 0 66 26" fill="none" xmlns="http://www.w3.org/2000/svg">
<g clip-path="url(#clip0_341_4947)">
<g opacity="0.6">
<path d="M17.732 6.57726L18.2172 6.09212L17.7224 5.61685C16.4999 4.4426 14.8519 3.53711 12.5591 3.53711C8.42265 3.53711 4.93604 6.90381 4.93604 11.0644C4.93604 15.225 8.42265 18.5916 12.5591 18.5916C14.7739 18.5916 16.4828 17.8575 17.8247 16.4687C19.2318 15.0585 19.6372 13.1189 19.6372 11.6166C19.6372 11.1476 19.5977 10.6973 19.5211 10.314L19.4129 9.77351H11.8867V12.9959H16.2171C16.0625 13.5308 15.8297 13.9181 15.5455 14.2027C14.9817 14.7599 14.1269 15.3767 12.5591 15.3767C10.181 15.3767 8.31302 13.466 8.31302 11.0644C8.31302 8.66285 10.181 6.75212 12.5591 6.75212C13.8467 6.75212 14.7782 7.25481 15.4791 7.91072L15.9541 8.35518L16.4141 7.89522L17.732 6.57726Z" fill="white" stroke="white" stroke-width="1.34483"/>
<path d="M24.3622 18.5845C27.1317 18.5845 29.3861 16.4155 29.3861 13.5018C29.3861 10.5717 27.1302 8.41895 24.3622 8.41895C21.5943 8.41895 19.3384 10.5717 19.3384 13.5018C19.3384 16.4155 21.5928 18.5845 24.3622 18.5845ZM24.3622 11.5014C25.2713 11.5014 26.1343 12.2518 26.1343 13.5018C26.1343 14.7394 25.2689 15.5021 24.3622 15.5021C23.4568 15.5021 22.5902 14.7333 22.5902 13.5018C22.5902 12.2579 23.4544 11.5014 24.3622 11.5014Z" fill="white" stroke="white" stroke-width="1.34483"/>
<path d="M34.1215 15.5021H34.1177C33.2123 15.5021 32.3456 14.7333 32.3456 13.5018C32.3456 12.2579 33.2098 11.5014 34.1177 11.5014C35.0267 11.5014 35.8897 12.2518 35.8897 13.5018C35.8897 14.743 35.0219 15.5072 34.1215 15.5021ZM34.1103 18.5845C36.8798 18.5845 39.1342 16.4155 39.1342 13.5018C39.1342 10.5717 36.8783 8.41895 34.1103 8.41895C31.3423 8.41895 29.0864 10.5717 29.0864 13.5018C29.0864 16.4163 31.349 18.5845 34.1103 18.5845Z" fill="white" stroke="white" stroke-width="1.34483"/>
<path d="M48.6472 9.3566V8.68422H45.4616V8.79407C44.9685 8.55937 44.3838 8.41179 43.741 8.41179C41.1557 8.41179 38.8423 10.6692 38.8423 13.5167C38.8423 15.4236 39.8859 17.0562 41.3556 17.9221L41.2966 17.9466L39.6105 18.646L38.9893 18.9037L39.2472 19.5248C39.8055 20.87 41.2892 22.546 43.7779 22.546C45.0425 22.546 46.2766 22.1743 47.1973 21.2824C48.1237 20.3851 48.6472 19.0442 48.6472 17.2791V9.3566ZM42.1746 18.3081C42.6724 18.4879 43.2006 18.5847 43.741 18.5847C44.3514 18.5847 44.9118 18.4532 45.3916 18.2359C45.3131 18.5847 45.1749 18.8375 45.0104 19.0143C44.7583 19.2852 44.3647 19.4635 43.7779 19.4635C42.9603 19.4635 42.415 18.8829 42.1746 18.3081ZM43.9104 11.5016C44.782 11.5016 45.5941 12.2621 45.5941 13.524C45.5941 14.7609 44.7912 15.5096 43.9104 15.5096C42.9755 15.5096 42.1236 14.7262 42.1236 13.524C42.1236 12.2909 42.9838 11.5016 43.9104 11.5016ZM52.0412 4.6812V4.00879H48.7599V18.3271H52.0412V4.6812Z" fill="white" stroke="white" stroke-width="1.34483"/>
<path d="M59.37 14.3996L58.8157 14.03L58.441 14.5809C58.032 15.1824 57.5353 15.5162 56.825 15.5162C56.4389 15.5162 56.1441 15.4283 55.9108 15.2812C55.848 15.2416 55.7868 15.1959 55.7273 15.1434L60.8376 13.0253L61.4495 12.7716L61.2051 12.156L61.0087 11.6616C60.6028 10.579 59.3144 8.42578 56.6042 8.42578C53.9295 8.42578 51.8306 10.5449 51.8306 13.5086C51.8306 16.3305 53.9125 18.5914 56.8176 18.5914C59.1525 18.5914 60.5034 17.1577 61.0568 16.336L61.4343 15.7757L60.8721 15.4009L59.37 14.3996ZM57.0689 11.5214L55.3338 12.24C55.674 11.7251 56.2399 11.4714 56.6704 11.4714C56.8186 11.4714 56.9516 11.49 57.0689 11.5214Z" fill="white" stroke="white" stroke-width="1.34483"/>
</g>
<path d="M12.559 17.9197C8.78181 17.9197 5.6084 14.842 5.6084 11.0648C5.6084 7.28765 8.78181 4.20996 12.559 4.20996C14.6501 4.20996 16.1373 5.02725 17.2565 6.10223L15.9386 7.42019C15.136 6.66918 14.0463 6.08014 12.559 6.08014C9.79789 6.08014 7.64056 8.30373 7.64056 11.0648C7.64056 13.8259 9.79789 16.0495 12.559 16.0495C14.3482 16.0495 15.3642 15.328 16.0195 14.6801C16.557 14.1425 16.9031 13.3767 17.0356 12.3239H12.559V10.4464H18.8616C18.9279 10.7776 18.9647 11.1826 18.9647 11.6171C18.9647 13.0233 18.5819 14.761 17.3449 15.998C16.1373 17.2497 14.6059 17.9197 12.559 17.9197Z" fill="#4285F4"/>
<path d="M28.7137 13.5012C28.7137 16.0414 26.7625 17.9115 24.3622 17.9115C21.9619 17.9115 20.0107 16.0414 20.0107 13.5012C20.0107 10.9462 21.9619 9.09082 24.3622 9.09082C26.7625 9.09082 28.7137 10.9462 28.7137 13.5012ZM26.8067 13.5012C26.8067 11.9108 25.6727 10.8284 24.3622 10.8284C23.0516 10.8284 21.9177 11.9182 21.9177 13.5012C21.9177 15.0695 23.0516 16.1739 24.3622 16.1739C25.6727 16.1739 26.8067 15.0768 26.8067 13.5012Z" fill="#E94235"/>
<path d="M38.4617 13.5012C38.4617 16.0414 36.5105 17.9115 34.1103 17.9115C31.7173 17.9115 29.7588 16.0414 29.7588 13.5012C29.7588 10.9462 31.71 9.09082 34.1103 9.09082C36.5105 9.09082 38.4617 10.9462 38.4617 13.5012ZM36.5621 13.5012C36.5621 11.9108 35.4282 10.8284 34.1176 10.8284C32.8071 10.8284 31.6731 11.9182 31.6731 13.5012C31.6731 15.0695 32.8071 16.1739 34.1176 16.1739C35.4282 16.1813 36.5621 15.0768 36.5621 13.5012Z" fill="#FABB05"/>
<path d="M47.9752 9.35636V17.2788C47.9752 20.5407 46.0534 21.8733 43.7783 21.8733C41.6357 21.8733 40.3546 20.4376 39.8686 19.2668L41.5547 18.5673C41.8566 19.2889 42.5929 20.1357 43.7783 20.1357C45.2361 20.1357 46.1345 19.2301 46.1345 17.5439V16.9107H46.0681C45.6337 17.4482 44.7944 17.9121 43.7415 17.9121C41.5326 17.9121 39.5151 15.9904 39.5151 13.5164C39.5151 11.0278 41.54 9.08398 43.7415 9.08398C44.7944 9.08398 45.6337 9.55521 46.0681 10.0705H46.1345V9.35636H47.9752ZM46.267 13.5238C46.267 11.9703 45.2288 10.8289 43.9108 10.8289C42.5708 10.8289 41.4516 11.9628 41.4516 13.5238C41.4516 15.0626 42.5708 16.1818 43.9108 16.1818C45.2288 16.1818 46.267 15.0626 46.267 13.5238Z" fill="#4285F4"/>
<path d="M51.3691 4.68066V17.6541H49.4326V4.68066H51.3691Z" fill="#34A853"/>
<path d="M58.997 14.9595L60.4991 15.9608C60.0131 16.6825 58.8424 17.9194 56.8176 17.9194C54.3069 17.9194 52.5029 15.983 52.5029 13.509C52.5029 10.8878 54.3289 9.09863 56.6041 9.09863C58.8939 9.09863 60.0131 10.9173 60.3813 11.9039L60.5801 12.4046L54.6824 14.8491C55.1315 15.7327 55.8384 16.1891 56.8249 16.1891C57.8116 16.1891 58.4964 15.6958 58.997 14.9595ZM54.3658 13.3691L58.3123 11.7346C58.0914 11.1823 57.4435 10.7995 56.6704 10.7995C55.6837 10.7995 54.3142 11.6683 54.3658 13.3691Z" fill="#E94235"/>
</g>
<defs>
<clipPath id="clip0_341_4947">
<rect width="66" height="26" fill="white"/>
</clipPath>
</defs>
</svg>
