<svg width="28" height="28" viewBox="0 0 28 28" fill="none" xmlns="http://www.w3.org/2000/svg">
<path fill-rule="evenodd" clip-rule="evenodd" d="M12.6 20.3C16.8526 20.3 20.3 16.8526 20.3 12.6C20.3 8.34741 16.8526 4.9 12.6 4.9C8.34741 4.9 4.9 8.34741 4.9 12.6C4.9 16.8526 8.34741 20.3 12.6 20.3ZM12.6 21.7C17.6258 21.7 21.7 17.6258 21.7 12.6C21.7 7.57421 17.6258 3.5 12.6 3.5C7.57421 3.5 3.5 7.57421 3.5 12.6C3.5 17.6258 7.57421 21.7 12.6 21.7Z" fill="#121212"/>
<path fill-rule="evenodd" clip-rule="evenodd" d="M18.0959 18.113C18.3694 17.8398 18.8126 17.84 19.0859 18.1135L24.2956 23.3284C24.5689 23.6019 24.5686 24.0451 24.2951 24.3183C24.0216 24.5916 23.5784 24.5914 23.3052 24.3178L18.0954 19.1029C17.8222 18.8294 17.8224 18.3862 18.0959 18.113Z" fill="#121212"/>
</svg>
