<svg width="600" height="60" viewBox="0 0 600 60" fill="none" xmlns="http://www.w3.org/2000/svg">
<g clip-path="url(#clip0_826_1048)">
<path d="M28.5 22.0743C23.805 22.0743 20 25.1003 20 28.8323C20.0529 30.0084 20.4242 31.1481 21.0742 32.1296C21.7243 33.1112 22.6288 33.8977 23.691 34.4053L23.077 37.6993C23.0703 37.7358 23.0744 37.7734 23.0889 37.8075C23.1034 37.8416 23.1276 37.8707 23.1585 37.8912C23.1894 37.9117 23.2257 37.9226 23.2628 37.9226C23.2998 37.9226 23.3361 37.9117 23.367 37.8913L27.018 35.4863C27.018 35.4863 27.994 35.5863 28.5 35.5863C33.194 35.5863 37 32.5613 37 28.8283C37 25.0953 33.194 22.0703 28.5 22.0703" fill="#3C1E1E"/>
</g>
<defs>
<clipPath id="clip0_826_1048">
<rect width="17" height="15.85" fill="white" transform="translate(20 22.0742)"/>
</clipPath>
</defs>
</svg>
