<svg width="40" height="40" viewBox="0 0 40 40" fill="none" xmlns="http://www.w3.org/2000/svg">
<g clip-path="url(#clip0_590_1316)">
<g clip-path="url(#clip1_590_1316)">
<path d="M20 39.375C30.7005 39.375 39.375 30.7005 39.375 20C39.375 9.29948 30.7005 0.625 20 0.625C9.29948 0.625 0.625 9.29948 0.625 20C0.625 30.7005 9.29948 39.375 20 39.375Z" fill="white" stroke="#DBDBDB" stroke-width="1.25"/>
<path d="M20 27.8474L13.1184 20.6763C11.4605 18.9488 11.4605 16.1378 13.1184 14.4103C14.7622 12.6973 17.4164 12.6973 19.0602 14.4103L19.5489 14.9194L19.9997 15.3893L20.4507 14.9194L20.9397 14.4097C22.5836 12.6968 25.2377 12.6968 26.8816 14.4097C28.5395 16.1372 28.5395 18.9484 26.8816 20.6759L20 27.8474Z" stroke="#00A05E" stroke-width="1.25"/>
</g>
</g>
<defs>
<clipPath id="clip0_590_1316">
<rect width="40" height="40" fill="white"/>
</clipPath>
<clipPath id="clip1_590_1316">
<rect width="40" height="40" fill="white"/>
</clipPath>
</defs>
</svg>
