<svg width="24" height="24" viewBox="0 0 24 24" fill="none" xmlns="http://www.w3.org/2000/svg">
<g clip-path="url(#clip0_378_2072)">
<g clip-path="url(#clip1_378_2072)">
<path d="M11.9999 21.3605L3.7199 12.0005C2.8799 11.1605 2.3999 9.96047 2.3999 8.64047C2.3999 5.88047 4.7999 3.48047 7.5599 3.48047C9.4799 3.48047 11.1599 4.56047 11.9999 6.24047C12.8399 4.68047 14.5199 3.60047 16.4399 3.60047C19.3199 3.60047 21.5999 5.76047 21.5999 8.64047C21.5999 9.84047 21.1199 11.0405 20.2799 12.0005L11.9999 21.3605ZM7.5599 4.68047C5.5199 4.68047 3.5999 6.60047 3.5999 8.64047C3.5999 9.36047 3.7199 10.3205 4.6799 11.1605L11.9999 19.4405L19.3199 11.1605C20.0399 10.4405 20.3999 9.48047 20.3999 8.64047C20.3999 6.48047 18.7199 4.80047 16.4399 4.80047C14.2799 4.80047 12.5999 6.48047 12.5999 8.64047H11.3999C11.3999 6.48047 9.5999 4.68047 7.5599 4.68047Z" fill="black"/>
</g>
</g>
<defs>
<clipPath id="clip0_378_2072">
<rect width="24" height="24" fill="white"/>
</clipPath>
<clipPath id="clip1_378_2072">
<rect width="24" height="24" fill="white"/>
</clipPath>
</defs>
</svg>
