<svg width="28" height="17" viewBox="0 0 28 17" fill="none" xmlns="http://www.w3.org/2000/svg">
<g clip-path="url(#clip0_418_966)">
<g clip-path="url(#clip1_418_966)">
<g clip-path="url(#clip2_418_966)">
<path d="M0 0H28V17H0V0Z" fill="#328CA8"/>
<path d="M11.304 9.20052H9.46696C9.24696 9.72852 8.93896 10.1315 8.54296 10.4105C8.15396 10.6815 7.69596 10.8175 7.16796 10.8175C6.76496 10.8175 6.39796 10.7375 6.06796 10.5755C5.73658 10.4068 5.45004 10.1617 5.23196 9.86052C4.98105 9.51149 4.79476 9.1203 4.68196 8.70552C4.55052 8.18798 4.48765 7.65543 4.49496 7.12152C4.49496 6.52752 4.55696 6.00352 4.68196 5.54852C4.81396 5.08652 4.99696 4.69852 5.23196 4.38252C5.46696 4.06752 5.74496 3.82852 6.06796 3.66752C6.41109 3.50321 6.78755 3.42039 7.16796 3.42552C7.65896 3.42552 8.09196 3.54652 8.46596 3.78852C8.83996 4.02352 9.14096 4.37152 9.36796 4.83352H11.304V2.85352H12.668V13.0505H11.304V9.20052ZM9.75296 8.07852H11.315V5.94452H9.71996C9.78596 6.29652 9.81896 6.68852 9.81896 7.12152C9.81896 7.46652 9.79696 7.78552 9.75296 8.07852ZM8.45496 7.12152C8.45496 6.32952 8.34096 5.70952 8.11396 5.26252C7.89396 4.81552 7.57896 4.59152 7.16796 4.59152C6.75796 4.59152 6.43796 4.81552 6.21096 5.26252C5.99096 5.70952 5.88096 6.32952 5.88096 7.12152C5.88096 7.91352 5.99096 8.53352 6.21096 8.98052C6.43796 9.42752 6.75696 9.65152 7.16796 9.65152C7.57796 9.65152 7.89396 9.42752 8.11396 8.98052C8.34096 8.53352 8.45496 7.91352 8.45496 7.12152ZM22.707 9.29952H21.453V6.75852H20.693V8.90352H19.451V2.96352H20.694V5.65852H21.453V2.85352H22.707V9.29952ZM14.105 5.27352V4.29452H19.055V5.27352H14.105ZM15.194 3.89852V2.90852H18.12V3.89852H15.194ZM18.758 7.22052C18.758 7.45552 18.714 7.67552 18.626 7.88052C18.5365 8.08787 18.4011 8.27218 18.23 8.41952C18.0446 8.58317 17.8274 8.70676 17.592 8.78252C17.3006 8.87579 16.9958 8.92039 16.69 8.91452C16.345 8.91452 16.044 8.87052 15.788 8.78252C15.5496 8.70516 15.3288 8.58183 15.138 8.41952C14.9726 8.26959 14.8417 8.08573 14.754 7.88052C14.6653 7.67185 14.6204 7.44723 14.622 7.22052C14.622 6.99352 14.666 6.77652 14.754 6.57152C14.842 6.36621 14.9733 6.18234 15.139 6.03252C15.315 5.87852 15.531 5.75752 15.788 5.66952C16.044 5.57452 16.345 5.52652 16.69 5.52652C17.034 5.52652 17.335 5.57452 17.592 5.66952C17.848 5.75752 18.061 5.87852 18.23 6.03252C18.406 6.18652 18.538 6.36652 18.626 6.57152C18.714 6.77652 18.758 6.99352 18.758 7.22052ZM17.58 7.20952C17.58 7.01152 17.51 6.83952 17.37 6.69252C17.231 6.54552 17.004 6.47252 16.689 6.47252C16.373 6.47252 16.146 6.54552 16.007 6.69252C15.9396 6.76058 15.8863 6.8413 15.8503 6.93003C15.8143 7.01876 15.7961 7.11375 15.797 7.20952C15.797 7.40752 15.867 7.57952 16.007 7.72652C16.146 7.87352 16.373 7.94652 16.689 7.94652C17.004 7.94652 17.231 7.87352 17.371 7.72652C17.4381 7.65837 17.4912 7.57761 17.5271 7.48888C17.5629 7.40016 17.5809 7.30521 17.58 7.20952ZM19.24 9.32152C19.82 9.32152 20.326 9.37252 20.759 9.47552C21.199 9.57052 21.565 9.70652 21.859 9.88252C22.159 10.0515 22.383 10.2525 22.529 10.4875C22.6796 10.7037 22.7604 10.961 22.7604 11.2245C22.7604 11.4881 22.6796 11.7453 22.529 11.9615C22.383 12.1965 22.159 12.3975 21.859 12.5665C21.565 12.7425 21.199 12.8785 20.759 12.9735C20.2606 13.0831 19.7512 13.1348 19.241 13.1275C18.7307 13.134 18.2215 13.0823 17.723 12.9735C17.3401 12.8973 16.9721 12.7599 16.633 12.5665C16.365 12.4205 16.1354 12.2132 15.963 11.9615C15.8189 11.7428 15.7423 11.4865 15.743 11.2245C15.743 10.9605 15.816 10.7145 15.963 10.4875C16.117 10.2525 16.34 10.0515 16.633 9.88252C16.9721 9.68916 17.3401 9.55173 17.723 9.47552C18.163 9.37252 18.668 9.32152 19.24 9.32152ZM19.24 10.3775C18.852 10.3775 18.522 10.4035 18.25 10.4545C17.987 10.4985 17.77 10.5605 17.602 10.6415C17.4599 10.7015 17.3352 10.7961 17.239 10.9165C17.1706 11.005 17.1321 11.1128 17.129 11.2245C17.129 11.3275 17.165 11.4295 17.239 11.5325C17.3352 11.653 17.4599 11.7475 17.602 11.8075C17.77 11.8875 17.987 11.9545 18.251 12.0055C18.522 12.0565 18.852 12.0825 19.241 12.0825C19.629 12.0825 19.959 12.0565 20.231 12.0055C20.502 11.9545 20.722 11.8885 20.891 11.8075C21.033 11.7475 21.1578 11.653 21.254 11.5325C21.3224 11.4441 21.3609 11.3363 21.364 11.2245C21.3609 11.1128 21.3224 11.0049 21.254 10.9165C21.1578 10.796 21.033 10.7015 20.891 10.6415C20.6807 10.5487 20.4586 10.4858 20.231 10.4545C19.904 10.3986 19.5716 10.3729 19.24 10.3775Z" fill="white"/>
</g>
</g>
</g>
<defs>
<clipPath id="clip0_418_966">
<rect width="28" height="17" fill="white"/>
</clipPath>
<clipPath id="clip1_418_966">
<rect width="28" height="17" fill="white"/>
</clipPath>
<clipPath id="clip2_418_966">
<rect width="28" height="17" fill="white"/>
</clipPath>
</defs>
</svg>
