<svg width="28" height="17" viewBox="0 0 28 17" fill="none" xmlns="http://www.w3.org/2000/svg">
<g clip-path="url(#clip0_418_834)">
<g clip-path="url(#clip1_418_834)">
<g clip-path="url(#clip2_418_834)">
<path d="M0 0H28V17H0V0Z" fill="#328CA8"/>
<path d="M11.3042 9.20052H9.4672C9.2472 9.72852 8.9392 10.1315 8.5432 10.4105C8.1542 10.6815 7.6962 10.8175 7.1682 10.8175C6.7652 10.8175 6.3982 10.7375 6.0682 10.5755C5.73683 10.4068 5.45029 10.1617 5.2322 9.86052C4.98129 9.51149 4.79501 9.1203 4.6822 8.70552C4.55076 8.18798 4.48789 7.65543 4.4952 7.12152C4.4952 6.52752 4.5572 6.00352 4.6822 5.54852C4.8142 5.08652 4.9972 4.69852 5.2322 4.38252C5.4672 4.06752 5.7452 3.82852 6.0682 3.66752C6.41134 3.50321 6.78779 3.42039 7.1682 3.42552C7.6592 3.42552 8.0922 3.54652 8.4662 3.78852C8.8402 4.02352 9.1412 4.37152 9.3682 4.83352H11.3042V2.85352H12.6682V13.0505H11.3042V9.20052ZM9.7532 8.07852H11.3152V5.94452H9.7202C9.7862 6.29652 9.8192 6.68852 9.8192 7.12152C9.8192 7.46652 9.7972 7.78552 9.7532 8.07852ZM8.4552 7.12152C8.4552 6.32952 8.3412 5.70952 8.1142 5.26252C7.8942 4.81552 7.5792 4.59152 7.1682 4.59152C6.7582 4.59152 6.4382 4.81552 6.2112 5.26252C5.9912 5.70952 5.8812 6.32952 5.8812 7.12152C5.8812 7.91352 5.9912 8.53352 6.2112 8.98052C6.4382 9.42752 6.7572 9.65152 7.1682 9.65152C7.5782 9.65152 7.8942 9.42752 8.1142 8.98052C8.3412 8.53352 8.4552 7.91352 8.4552 7.12152ZM22.7072 9.29952H21.4532V6.75852H20.6932V8.90352H19.4512V2.96352H20.6942V5.65852H21.4532V2.85352H22.7072V9.29952ZM14.1052 5.27352V4.29452H19.0552V5.27352H14.1052ZM15.1942 3.89852V2.90852H18.1202V3.89852H15.1942ZM18.7582 7.22052C18.7582 7.45552 18.7142 7.67552 18.6262 7.88052C18.5368 8.08787 18.4013 8.27218 18.2302 8.41952C18.0448 8.58317 17.8276 8.70676 17.5922 8.78252C17.3008 8.87579 16.9961 8.92039 16.6902 8.91452C16.3452 8.91452 16.0442 8.87052 15.7882 8.78252C15.5499 8.70516 15.3291 8.58183 15.1382 8.41952C14.9729 8.26959 14.8419 8.08573 14.7542 7.88052C14.6655 7.67185 14.6206 7.44723 14.6222 7.22052C14.6222 6.99352 14.6662 6.77652 14.7542 6.57152C14.8422 6.36621 14.9735 6.18234 15.1392 6.03252C15.3152 5.87852 15.5312 5.75752 15.7882 5.66952C16.0442 5.57452 16.3452 5.52652 16.6902 5.52652C17.0342 5.52652 17.3352 5.57452 17.5922 5.66952C17.8482 5.75752 18.0612 5.87852 18.2302 6.03252C18.4062 6.18652 18.5382 6.36652 18.6262 6.57152C18.7142 6.77652 18.7582 6.99352 18.7582 7.22052ZM17.5802 7.20952C17.5802 7.01152 17.5102 6.83952 17.3702 6.69252C17.2312 6.54552 17.0042 6.47252 16.6892 6.47252C16.3732 6.47252 16.1462 6.54552 16.0072 6.69252C15.9398 6.76058 15.8866 6.8413 15.8505 6.93003C15.8145 7.01876 15.7964 7.11375 15.7972 7.20952C15.7972 7.40752 15.8672 7.57952 16.0072 7.72652C16.1462 7.87352 16.3732 7.94652 16.6892 7.94652C17.0042 7.94652 17.2312 7.87352 17.3712 7.72652C17.4384 7.65837 17.4915 7.57761 17.5273 7.48888C17.5632 7.40016 17.5812 7.30521 17.5802 7.20952ZM19.2402 9.32152C19.8202 9.32152 20.3262 9.37252 20.7592 9.47552C21.1992 9.57052 21.5652 9.70652 21.8592 9.88252C22.1592 10.0515 22.3832 10.2525 22.5292 10.4875C22.6799 10.7037 22.7607 10.961 22.7607 11.2245C22.7607 11.4881 22.6799 11.7453 22.5292 11.9615C22.3832 12.1965 22.1592 12.3975 21.8592 12.5665C21.5652 12.7425 21.1992 12.8785 20.7592 12.9735C20.2608 13.0831 19.7514 13.1348 19.2412 13.1275C18.731 13.134 18.2217 13.0823 17.7232 12.9735C17.3404 12.8973 16.9723 12.7599 16.6332 12.5665C16.3653 12.4205 16.1357 12.2132 15.9632 11.9615C15.8191 11.7428 15.7426 11.4865 15.7432 11.2245C15.7432 10.9605 15.8162 10.7145 15.9632 10.4875C16.1172 10.2525 16.3402 10.0515 16.6332 9.88252C16.9723 9.68916 17.3404 9.55173 17.7232 9.47552C18.1632 9.37252 18.6682 9.32152 19.2402 9.32152ZM19.2402 10.3775C18.8522 10.3775 18.5222 10.4035 18.2502 10.4545C17.9872 10.4985 17.7702 10.5605 17.6022 10.6415C17.4602 10.7015 17.3354 10.7961 17.2392 10.9165C17.1709 11.005 17.1323 11.1128 17.1292 11.2245C17.1292 11.3275 17.1652 11.4295 17.2392 11.5325C17.3354 11.653 17.4602 11.7475 17.6022 11.8075C17.7702 11.8875 17.9872 11.9545 18.2512 12.0055C18.5222 12.0565 18.8522 12.0825 19.2412 12.0825C19.6292 12.0825 19.9592 12.0565 20.2312 12.0055C20.5022 11.9545 20.7222 11.8885 20.8912 11.8075C21.0332 11.7475 21.158 11.653 21.2542 11.5325C21.3226 11.4441 21.3611 11.3363 21.3642 11.2245C21.3611 11.1128 21.3226 11.0049 21.2542 10.9165C21.158 10.796 21.0332 10.7015 20.8912 10.6415C20.681 10.5487 20.4588 10.4858 20.2312 10.4545C19.9042 10.3986 19.5719 10.3729 19.2402 10.3775Z" fill="white"/>
</g>
</g>
</g>
<defs>
<clipPath id="clip0_418_834">
<rect width="28" height="17" fill="white"/>
</clipPath>
<clipPath id="clip1_418_834">
<rect width="28" height="17" fill="white"/>
</clipPath>
<clipPath id="clip2_418_834">
<rect width="28" height="17" fill="white"/>
</clipPath>
</defs>
</svg>
